<mxfile host="app.diagrams.net" modified="2024-06-09T18:49:32.887Z" agent="Mozilla/5.0 (Windows NT 10.0; Win64; x64) AppleWebKit/537.36 (KHTML, like Gecko) Chrome/125.0.0.0 Safari/537.36" etag="2tnP_S3nSXTpfX-VF3p1" version="24.5.2" type="device">
  <diagram name="Страница — 1" id="lGAsu4HKIqdR1Tm_gRYE">
    <mxGraphModel dx="794" dy="462" grid="1" gridSize="10" guides="1" tooltips="1" connect="1" arrows="1" fold="1" page="1" pageScale="1" pageWidth="827" pageHeight="1169" math="0" shadow="0">
      <root>
        <mxCell id="0" />
        <mxCell id="1" parent="0" />
        <mxCell id="i_kKATyBUdj6vqAIbMdr-1" value="&lt;font style=&quot;font-size: 15px;&quot;&gt;Начало&lt;/font&gt;" style="strokeWidth=2;html=1;shape=mxgraph.flowchart.terminator;whiteSpace=wrap;" vertex="1" parent="1">
          <mxGeometry x="120" y="40" width="140" height="30" as="geometry" />
        </mxCell>
        <mxCell id="i_kKATyBUdj6vqAIbMdr-3" value="&lt;span style=&quot;font-size: 14px;&quot;&gt;Найти экспонированную вершину (x&lt;sub&gt;0&lt;/sub&gt;)&lt;/span&gt;" style="rounded=0;whiteSpace=wrap;html=1;" vertex="1" parent="1">
          <mxGeometry x="120" y="110" width="140" height="60" as="geometry" />
        </mxCell>
        <mxCell id="i_kKATyBUdj6vqAIbMdr-4" value="&lt;span style=&quot;font-size: 14px;&quot;&gt;Найти смежную с x&lt;sub&gt;0&lt;/sub&gt; экспонированную вершину (x&lt;/span&gt;&lt;span style=&quot;font-size: 11.6667px;&quot;&gt;&lt;sub&gt;1&lt;/sub&gt;&lt;/span&gt;&lt;span style=&quot;font-size: 14px;&quot;&gt;)&lt;/span&gt;" style="rounded=0;whiteSpace=wrap;html=1;" vertex="1" parent="1">
          <mxGeometry x="120" y="200" width="140" height="60" as="geometry" />
        </mxCell>
        <mxCell id="i_kKATyBUdj6vqAIbMdr-5" value="&lt;div style=&quot;font-size: 5px;&quot;&gt;&lt;span style=&quot;&quot;&gt;&lt;br&gt;&lt;/span&gt;&lt;/div&gt;&lt;div style=&quot;&quot;&gt;&lt;span style=&quot;font-size: 14px;&quot;&gt;Ребро (x&lt;sub&gt;0&lt;/sub&gt;; x&lt;sub&gt;1&lt;/sub&gt;) найдено&lt;/span&gt;&lt;/div&gt;" style="rhombus;whiteSpace=wrap;html=1;" vertex="1" parent="1">
          <mxGeometry x="120" y="290" width="140" height="70" as="geometry" />
        </mxCell>
        <mxCell id="i_kKATyBUdj6vqAIbMdr-8" value="&lt;div&gt;&lt;span style=&quot;font-size: 14px;&quot;&gt;Обозначить ребро (x&lt;/span&gt;&lt;sub&gt;0&lt;/sub&gt;&lt;span style=&quot;font-size: 14px;&quot;&gt;; x&lt;/span&gt;&lt;sub&gt;1&lt;/sub&gt;&lt;span style=&quot;font-size: 14px;&quot;&gt;) как паросочетание&lt;/span&gt;&lt;br&gt;&lt;/div&gt;" style="rounded=0;whiteSpace=wrap;html=1;" vertex="1" parent="1">
          <mxGeometry x="300" y="295" width="140" height="60" as="geometry" />
        </mxCell>
        <mxCell id="i_kKATyBUdj6vqAIbMdr-9" value="&lt;div style=&quot;font-size: 4px;&quot;&gt;&lt;span style=&quot;background-color: initial;&quot;&gt;&lt;br&gt;&lt;/span&gt;&lt;/div&gt;&lt;div style=&quot;font-size: 5px;&quot;&gt;&lt;span style=&quot;background-color: initial; font-size: 14px;&quot;&gt;В графе ос-&lt;/span&gt;&lt;/div&gt;&lt;div style=&quot;font-size: 5px;&quot;&gt;&lt;span style=&quot;background-color: initial; font-size: 14px;&quot;&gt;талось больше&amp;nbsp; 2х экспонирован-&lt;/span&gt;&lt;/div&gt;&lt;div style=&quot;font-size: 5px;&quot;&gt;&lt;span style=&quot;background-color: initial; font-size: 14px;&quot;&gt;ных точек&lt;/span&gt;&lt;/div&gt;" style="rhombus;whiteSpace=wrap;html=1;" vertex="1" parent="1">
          <mxGeometry x="480" y="265" width="140" height="120" as="geometry" />
        </mxCell>
        <mxCell id="i_kKATyBUdj6vqAIbMdr-10" value="" style="endArrow=classic;html=1;rounded=0;" edge="1" parent="1" source="i_kKATyBUdj6vqAIbMdr-1" target="i_kKATyBUdj6vqAIbMdr-3">
          <mxGeometry width="50" height="50" relative="1" as="geometry">
            <mxPoint x="360" y="240" as="sourcePoint" />
            <mxPoint x="410" y="190" as="targetPoint" />
          </mxGeometry>
        </mxCell>
        <mxCell id="i_kKATyBUdj6vqAIbMdr-11" value="&lt;div&gt;&lt;span style=&quot;font-size: 14px;&quot;&gt;Вывести паросочетание&lt;/span&gt;&lt;/div&gt;" style="rounded=0;whiteSpace=wrap;html=1;" vertex="1" parent="1">
          <mxGeometry x="480" y="420" width="140" height="50" as="geometry" />
        </mxCell>
        <mxCell id="i_kKATyBUdj6vqAIbMdr-12" value="&lt;font style=&quot;font-size: 15px;&quot;&gt;Конец&lt;/font&gt;" style="strokeWidth=2;html=1;shape=mxgraph.flowchart.terminator;whiteSpace=wrap;" vertex="1" parent="1">
          <mxGeometry x="480" y="510" width="140" height="30" as="geometry" />
        </mxCell>
        <mxCell id="i_kKATyBUdj6vqAIbMdr-13" value="" style="endArrow=classic;html=1;rounded=0;" edge="1" parent="1" source="i_kKATyBUdj6vqAIbMdr-3" target="i_kKATyBUdj6vqAIbMdr-4">
          <mxGeometry width="50" height="50" relative="1" as="geometry">
            <mxPoint x="360" y="280" as="sourcePoint" />
            <mxPoint x="410" y="230" as="targetPoint" />
          </mxGeometry>
        </mxCell>
        <mxCell id="i_kKATyBUdj6vqAIbMdr-14" value="" style="endArrow=classic;html=1;rounded=0;" edge="1" parent="1" source="i_kKATyBUdj6vqAIbMdr-4" target="i_kKATyBUdj6vqAIbMdr-5">
          <mxGeometry width="50" height="50" relative="1" as="geometry">
            <mxPoint x="360" y="280" as="sourcePoint" />
            <mxPoint x="410" y="230" as="targetPoint" />
          </mxGeometry>
        </mxCell>
        <mxCell id="i_kKATyBUdj6vqAIbMdr-15" value="" style="endArrow=classic;html=1;rounded=0;" edge="1" parent="1" source="i_kKATyBUdj6vqAIbMdr-5" target="i_kKATyBUdj6vqAIbMdr-21">
          <mxGeometry width="50" height="50" relative="1" as="geometry">
            <mxPoint x="360" y="280" as="sourcePoint" />
            <mxPoint x="190" y="400.6666564941406" as="targetPoint" />
          </mxGeometry>
        </mxCell>
        <mxCell id="i_kKATyBUdj6vqAIbMdr-16" value="" style="endArrow=classic;html=1;rounded=0;" edge="1" parent="1" source="i_kKATyBUdj6vqAIbMdr-5" target="i_kKATyBUdj6vqAIbMdr-8">
          <mxGeometry width="50" height="50" relative="1" as="geometry">
            <mxPoint x="360" y="280" as="sourcePoint" />
            <mxPoint x="410" y="230" as="targetPoint" />
          </mxGeometry>
        </mxCell>
        <mxCell id="i_kKATyBUdj6vqAIbMdr-17" value="" style="endArrow=classic;html=1;rounded=0;" edge="1" parent="1" source="i_kKATyBUdj6vqAIbMdr-8" target="i_kKATyBUdj6vqAIbMdr-9">
          <mxGeometry width="50" height="50" relative="1" as="geometry">
            <mxPoint x="360" y="280" as="sourcePoint" />
            <mxPoint x="410" y="230" as="targetPoint" />
          </mxGeometry>
        </mxCell>
        <mxCell id="i_kKATyBUdj6vqAIbMdr-18" value="" style="endArrow=classic;html=1;rounded=0;" edge="1" parent="1" source="i_kKATyBUdj6vqAIbMdr-9" target="i_kKATyBUdj6vqAIbMdr-1">
          <mxGeometry width="50" height="50" relative="1" as="geometry">
            <mxPoint x="360" y="330" as="sourcePoint" />
            <mxPoint x="590" y="190" as="targetPoint" />
            <Array as="points">
              <mxPoint x="550" y="55" />
            </Array>
          </mxGeometry>
        </mxCell>
        <mxCell id="i_kKATyBUdj6vqAIbMdr-19" value="" style="endArrow=classic;html=1;rounded=0;" edge="1" parent="1" source="i_kKATyBUdj6vqAIbMdr-9" target="i_kKATyBUdj6vqAIbMdr-11">
          <mxGeometry width="50" height="50" relative="1" as="geometry">
            <mxPoint x="360" y="380" as="sourcePoint" />
            <mxPoint x="410" y="330" as="targetPoint" />
          </mxGeometry>
        </mxCell>
        <mxCell id="i_kKATyBUdj6vqAIbMdr-20" value="" style="endArrow=classic;html=1;rounded=0;" edge="1" parent="1" source="i_kKATyBUdj6vqAIbMdr-11" target="i_kKATyBUdj6vqAIbMdr-12">
          <mxGeometry width="50" height="50" relative="1" as="geometry">
            <mxPoint x="360" y="380" as="sourcePoint" />
            <mxPoint x="410" y="330" as="targetPoint" />
          </mxGeometry>
        </mxCell>
        <mxCell id="i_kKATyBUdj6vqAIbMdr-21" value="&lt;span style=&quot;font-size: 14px;&quot;&gt;Удалить последнее добавленное в паросочетание ребро из паросочетания&lt;/span&gt;" style="rounded=0;whiteSpace=wrap;html=1;" vertex="1" parent="1">
          <mxGeometry x="120" y="400" width="140" height="90" as="geometry" />
        </mxCell>
        <mxCell id="i_kKATyBUdj6vqAIbMdr-23" value="" style="endArrow=classic;html=1;rounded=0;" edge="1" parent="1" source="i_kKATyBUdj6vqAIbMdr-21">
          <mxGeometry width="50" height="50" relative="1" as="geometry">
            <mxPoint x="360" y="420" as="sourcePoint" />
            <mxPoint x="190" y="80" as="targetPoint" />
            <Array as="points">
              <mxPoint x="60" y="445" />
              <mxPoint x="60" y="80" />
            </Array>
          </mxGeometry>
        </mxCell>
      </root>
    </mxGraphModel>
  </diagram>
</mxfile>
